<svg width="64" height="51" viewBox="0 0 64 51" fill="none" xmlns="http://www.w3.org/2000/svg">
<g clip-path="url(#clip0_59_22)">
<path d="M29.42 0.119555C29.93 0.328735 30.29 0.786938 30.38 1.32483L31.79 9.76174L40.26 11.1662C40.8 11.2559 41.26 11.6145 41.47 12.1225C41.68 12.6305 41.62 13.2082 41.31 13.6565L37.46 19.135C37.24 19.125 37.02 19.1151 36.79 19.1151C34.46 19.1151 32.28 19.7326 30.39 20.8184V20.7088C30.39 15.4295 26.09 11.1463 20.79 11.1463C15.49 11.1463 11.19 15.4295 11.19 20.7088C11.19 25.9881 15.49 30.2713 20.79 30.2713C21.6 30.2713 22.38 30.1717 23.13 29.9824C19.47 31.7854 16.8 35.2717 16.15 39.4354L13.71 41.1287C13.26 41.4375 12.68 41.5073 12.17 41.2881C11.66 41.069 11.3 40.6207 11.21 40.0828L9.81003 31.6658L1.34003 30.2614C0.800027 30.1717 0.340027 29.8131 0.130027 29.3051C-0.0799727 28.7971 -0.0199727 28.2194 0.290027 27.7711L5.25003 20.7188L0.290027 13.6664C-0.0299727 13.2182 -0.0899727 12.6405 0.130027 12.1324C0.350027 11.6244 0.800027 11.2658 1.34003 11.1762L9.81003 9.7717L11.22 1.33479C11.31 0.796899 11.67 0.338696 12.18 0.129516C12.69 -0.0796637 13.27 -0.019898 13.72 0.288891L20.8 5.22952L27.88 0.288891C28.33 -0.029859 28.91 -0.0896246 29.42 0.129516V0.119555ZM14.4 20.7188C14.4 19.028 15.0743 17.4065 16.2745 16.211C17.4748 15.0154 19.1026 14.3438 20.8 14.3438C22.4974 14.3438 24.1253 15.0154 25.3255 16.211C26.5257 17.4065 27.2 19.028 27.2 20.7188C27.2 22.4095 26.5257 24.031 25.3255 25.2266C24.1253 26.4221 22.4974 27.0938 20.8 27.0938C19.1026 27.0938 17.4748 26.4221 16.2745 25.2266C15.0743 24.031 14.4 22.4095 14.4 20.7188ZM63.99 43.0213C63.99 47.424 60.41 50.9901 55.99 50.9901H28.8C23.5 50.9901 19.2 46.7069 19.2 41.4276C19.2 36.6862 22.66 32.7615 27.2 32.0045V31.875C27.2 26.5957 31.5 22.3125 36.8 22.3125C40.29 22.3125 43.34 24.1653 45.02 26.9344C46.32 26.028 47.9 25.5 49.6 25.5C54.02 25.5 57.6 29.066 57.6 33.4688C57.6 34.0565 57.54 34.6342 57.41 35.1821C61.15 35.8494 63.99 39.1067 63.99 43.0213Z" fill="white"/>
</g>
<defs>
<clipPath id="clip0_59_22">
<rect width="64" height="51" fill="white"/>
</clipPath>
</defs>
</svg>
