<svg width="55" height="51" viewBox="0 0 55 51" fill="none" xmlns="http://www.w3.org/2000/svg">
<path d="M41.1657 7.16589C38.4307 7.16589 35.8076 8.17337 33.8737 9.96668C31.9397 11.76 30.8532 14.1923 30.8532 16.7284C30.8576 18.0739 31.1681 19.4035 31.7646 20.6301C32.0323 20.6193 32.301 20.6136 32.5706 20.6132H32.5718C36.2484 20.6134 39.5924 21.5276 42.0762 23.0671C43.2338 23.7847 44.2123 24.6525 44.9272 25.6309C46.8577 24.9296 48.5154 23.705 49.6839 22.1169C50.8525 20.5289 51.4777 18.651 51.478 16.7285C51.478 14.1924 50.3915 11.7601 48.4575 9.96678C46.5236 8.17347 43.9005 7.16599 41.1655 7.16599L41.1657 7.16589ZM16.6141 17.9142C11.5275 17.9145 7.46457 21.546 7.46414 26.0015V26.0022C7.46496 26.7393 7.57934 27.4726 7.80381 28.1797L8.1033 29.1237L7.06152 29.3123C5.65967 29.5663 4.50918 30.0911 3.74756 30.7193C2.98626 31.3472 2.6207 32.0396 2.61963 32.7407V32.741C2.61984 33.6182 3.19165 34.4752 4.31765 35.1713C5.44364 35.8673 7.08677 36.3362 8.91874 36.3364C9.8286 36.3347 10.7279 36.2163 11.5487 35.9934L12.0434 35.859L12.4394 36.165C14.275 37.5837 17.7967 38.5815 21.5917 38.5825C23.1279 38.5801 24.6462 38.4211 26.0358 38.1203L26.8232 37.9496L27.1435 38.6379C28.0168 40.5145 30.9293 42.039 34.354 42.0415C36.5095 42.0412 38.4441 41.4578 39.7888 40.5731C41.1307 39.6903 41.8605 38.5642 41.8638 37.3685C41.8626 37.3351 41.8608 37.3017 41.8585 37.2681L41.7833 36.2611L42.8704 36.3104C43.2289 36.3267 43.5897 36.3355 43.9511 36.3363C46.4443 36.3361 48.6997 35.9641 50.2457 35.4099C51.0189 35.1327 51.6101 34.8067 51.9562 34.5134C52.3017 34.2206 52.3797 34.0164 52.38 33.8646C52.3796 33.7277 52.3173 33.5498 52.0347 33.2875C51.7514 33.0245 51.2596 32.7227 50.6004 32.4555C49.2818 31.9213 47.3141 31.5184 45.0549 31.4184L43.8944 31.367L44.1598 30.3181C44.239 30.006 44.2815 29.6869 44.2865 29.3663C44.2841 27.5599 43.106 25.8624 41.0018 24.5582C38.8957 23.2526 35.8993 22.4068 32.5719 22.4066C30.3715 22.4094 28.2151 22.7885 26.3636 23.4874L25.4772 23.8221L25.1073 23.0037C23.7252 19.9447 20.3703 17.9166 16.6146 17.9146H16.614L16.6141 17.9142Z" fill="black"/>
</svg>
