<svg width="40" height="40" viewBox="0 0 40 40" fill="none" xmlns="http://www.w3.org/2000/svg">
<rect width="40" height="40" transform="matrix(-1 0 0 1 40 0)" fill="#3C3C3C" fill-opacity="0.7"/>
<path d="M17.8853 6.11469C17.3853 5.61476 16.7071 5.33392 16 5.33392C15.2929 5.33392 14.6147 5.61476 14.1147 6.11469L2.11467 18.1147C1.61475 18.6148 1.33391 19.2929 1.33391 20C1.33391 20.7071 1.61475 21.3853 2.11467 21.8854L14.1147 33.8854C14.6176 34.3711 15.2912 34.6399 15.9904 34.6338C16.6896 34.6277 17.3584 34.3473 17.8529 33.8529C18.3473 33.3584 18.6277 32.6896 18.6338 31.9904C18.6399 31.2912 18.3711 30.6176 17.8853 30.1147L10.6667 22.6667H36C36.7072 22.6667 37.3855 22.3857 37.8856 21.8856C38.3857 21.3855 38.6667 20.7073 38.6667 20C38.6667 19.2928 38.3857 18.6145 37.8856 18.1144C37.3855 17.6143 36.7072 17.3334 36 17.3334H10.6667L17.8853 9.88535C18.3853 9.38528 18.6661 8.70712 18.6661 8.00002C18.6661 7.29292 18.3853 6.61476 17.8853 6.11469Z" fill="white"/>
</svg>
