<svg width="40" height="40" viewBox="0 0 40 40" fill="none" xmlns="http://www.w3.org/2000/svg">
<rect width="40" height="40" fill="#3C3C3C" fill-opacity="0.7"/>
<path d="M22.1146 6.11469C22.6147 5.61476 23.2929 5.33392 24 5.33392C24.7071 5.33392 25.3852 5.61476 25.8853 6.11469L37.8853 18.1147C38.3852 18.6148 38.6661 19.2929 38.6661 20C38.6661 20.7071 38.3852 21.3853 37.8853 21.8854L25.8853 33.8854C25.3824 34.3711 24.7088 34.6399 24.0096 34.6338C23.3104 34.6277 22.6416 34.3473 22.1471 33.8529C21.6527 33.3584 21.3723 32.6896 21.3662 31.9904C21.3601 31.2912 21.6289 30.6176 22.1146 30.1147L29.3333 22.6667H3.99998C3.29274 22.6667 2.61446 22.3857 2.11436 21.8856C1.61426 21.3855 1.33331 20.7073 1.33331 20C1.33331 19.2928 1.61426 18.6145 2.11436 18.1144C2.61446 17.6143 3.29274 17.3334 3.99998 17.3334H29.3333L22.1146 9.88535C21.6147 9.38528 21.3339 8.70712 21.3339 8.00002C21.3339 7.29292 21.6147 6.61476 22.1146 6.11469Z" fill="white"/>
</svg>
