<svg width="72" height="72" viewBox="0 0 72 72" fill="none" xmlns="http://www.w3.org/2000/svg">
<path d="M25.2 51L36 40.2L46.8 51L51 46.8L40.2 36L51 25.2L46.8 21L36 31.8L25.2 21L21 25.2L31.8 36L21 46.8L25.2 51ZM36 66C31.85 66 27.95 65.212 24.3 63.636C20.65 62.06 17.475 59.923 14.775 57.225C12.075 54.527 9.938 51.352 8.364 47.7C6.79 44.048 6.002 40.148 6 36C5.998 31.852 6.786 27.952 8.364 24.3C9.942 20.648 12.079 17.473 14.775 14.775C17.471 12.077 20.646 9.94 24.3 8.364C27.954 6.788 31.854 6 36 6C40.146 6 44.046 6.788 47.7 8.364C51.354 9.94 54.529 12.077 57.225 14.775C59.921 17.473 62.059 20.648 63.639 24.3C65.219 27.952 66.006 31.852 66 36C65.994 40.148 65.206 44.048 63.636 47.7C62.066 51.352 59.929 54.527 57.225 57.225C54.521 59.923 51.346 62.061 47.7 63.639C44.054 65.217 40.154 66.004 36 66ZM36 60C42.7 60 48.375 57.675 53.025 53.025C57.675 48.375 60 42.7 60 36C60 29.3 57.675 23.625 53.025 18.975C48.375 14.325 42.7 12 36 12C29.3 12 23.625 14.325 18.975 18.975C14.325 23.625 12 29.3 12 36C12 42.7 14.325 48.375 18.975 53.025C23.625 57.675 29.3 60 36 60Z" fill="black"/>
</svg>
