<svg width="141" height="112" viewBox="0 0 141 112" fill="none" xmlns="http://www.w3.org/2000/svg">
<g clip-path="url(#clip0_248_595)">
<path d="M32.2743 86.6667C34.6087 86.6667 36.8476 87.5227 38.4983 89.0464C40.149 90.5702 41.0763 92.6368 41.0763 94.7917C41.0763 96.9465 40.149 99.0132 38.4983 100.537C36.8476 102.061 34.6087 102.917 32.2743 102.917C29.9398 102.917 27.7009 102.061 26.0502 100.537C24.3995 99.0132 23.4722 96.9465 23.4722 94.7917C23.4722 92.6368 24.3995 90.5702 26.0502 89.0464C27.7009 87.5227 29.9398 86.6667 32.2743 86.6667ZM61.6145 70.4167C65.5053 70.4167 69.2367 71.8434 71.9879 74.3829C74.7391 76.9225 76.2847 80.3669 76.2847 83.9583C76.2847 87.5498 74.7391 90.9942 71.9879 93.5337C69.2367 96.0733 65.5053 97.5 61.6145 97.5C57.7238 97.5 53.9924 96.0733 51.2412 93.5337C48.49 90.9942 46.9444 87.5498 46.9444 83.9583C46.9444 80.3669 48.49 76.9225 51.2412 74.3829C53.9924 71.8434 57.7238 70.4167 61.6145 70.4167ZM96.8229 65C89.8399 65 83.5024 62.2917 79.2187 57.6875C74.935 62.2917 68.5975 65 61.6145 65C50.1131 65 40.5482 57.3625 38.5531 47.3417C34.1215 45.7597 30.3108 42.9793 27.6198 39.3646C24.9289 35.7498 23.4833 31.4692 23.4722 27.0833C23.4722 21.337 25.9451 15.826 30.347 11.7627C34.7489 7.6994 40.7192 5.41667 46.9444 5.41667C48.4701 5.41667 49.8784 5.57917 51.4628 5.79583C55.7465 2.22083 61.3211 0 67.4826 0C74.4656 0 80.8031 2.70833 85.0868 7.3125C89.3704 2.70833 95.7079 0 102.691 0C114.192 0 123.757 7.6375 125.752 17.6583C130.184 19.2403 133.995 22.0207 136.686 25.6354C139.377 29.2502 140.822 33.5308 140.833 37.9167C140.833 43.663 138.36 49.174 133.958 53.2373C129.557 57.3006 123.586 59.5833 117.361 59.5833L112.843 59.2042C108.559 62.7792 102.984 65 96.8229 65Z" fill="white"/>
</g>
<defs>
<clipPath id="clip0_248_595">
<rect width="140.833" height="130" fill="white"/>
</clipPath>
</defs>
</svg>
