<svg width="64" height="64" viewBox="0 0 64 64" fill="none" xmlns="http://www.w3.org/2000/svg">
<path d="M53.6875 52.9275L38.0375 28.3325L53.48 11.345C53.8293 10.9513 54.0093 10.4358 53.981 9.91031C53.9527 9.38479 53.7185 8.89159 53.329 8.53764C52.9395 8.18369 52.4262 7.99752 51.9004 8.01949C51.3746 8.04146 50.8786 8.2698 50.52 8.655L35.81 24.835L25.6875 8.9275C25.507 8.64339 25.2577 8.40943 24.9627 8.24729C24.6678 8.08516 24.3366 8.0001 24 8H12C11.6414 7.99983 11.2894 8.09607 10.9807 8.27865C10.6721 8.46123 10.4182 8.72343 10.2457 9.0378C10.0732 9.35218 9.98836 9.70715 10.0001 10.0656C10.0119 10.424 10.1198 10.7726 10.3125 11.075L25.9625 35.6675L10.52 52.6675C10.3397 52.8612 10.1996 53.0888 10.1079 53.3371C10.0161 53.5853 9.97458 53.8493 9.98563 54.1137C9.99668 54.3782 10.0601 54.6378 10.1722 54.8775C10.2843 55.1173 10.4429 55.3324 10.6388 55.5104C10.8347 55.6884 11.0639 55.8257 11.3132 55.9145C11.5626 56.0032 11.827 56.0416 12.0913 56.0274C12.3556 56.0131 12.6144 55.9466 12.8528 55.8316C13.0912 55.7166 13.3044 55.5555 13.48 55.3575L28.19 39.1775L38.3125 55.085C38.4945 55.3668 38.7444 55.5983 39.0393 55.7582C39.3342 55.9181 39.6646 56.0012 40 56H52C52.3582 55.9999 52.7098 55.9036 53.0181 55.7211C53.3264 55.5387 53.58 55.2768 53.7524 54.9628C53.9248 54.6488 54.0098 54.2943 53.9984 53.9363C53.987 53.5782 53.8796 53.2299 53.6875 52.9275ZM41.0975 52L15.6425 12H22.8925L48.3575 52H41.0975Z" fill="black"/>
</svg>
